<?xml version="1.0" encoding="UTF-8" standalone="no"?>
<!-- Created with Inkscape (http://www.inkscape.org/) -->

<svg
   width="210mm"
   height="297mm"
   viewBox="0 0 210 297"
   version="1.1"
   id="svg1"
   xml:space="preserve"
   inkscape:version="1.4.2 (f4327f4, 2025-05-13)"
   sodipodi:docname="watermark.svg"
   xmlns:inkscape="http://www.inkscape.org/namespaces/inkscape"
   xmlns:sodipodi="http://sodipodi.sourceforge.net/DTD/sodipodi-0.dtd"
   xmlns="http://www.w3.org/2000/svg"
   xmlns:svg="http://www.w3.org/2000/svg"><sodipodi:namedview
     id="namedview1"
     pagecolor="#ffffff"
     bordercolor="#000000"
     borderopacity="0.25"
     inkscape:showpageshadow="2"
     inkscape:pageopacity="0.0"
     inkscape:pagecheckerboard="0"
     inkscape:deskcolor="#d1d1d1"
     inkscape:document-units="mm"
     inkscape:zoom="0.71891835"
     inkscape:cx="395.7334"
     inkscape:cy="449.98156"
     inkscape:window-width="1920"
     inkscape:window-height="1009"
     inkscape:window-x="1912"
     inkscape:window-y="-8"
     inkscape:window-maximized="1"
     inkscape:current-layer="layer1" /><defs
     id="defs1" /><g
     inkscape:label="Camada 1"
     inkscape:groupmode="layer"
     id="layer1"><path
       style="fill:#000000"
       d="m 12.405491,297.10655 c 0.54003,-0.65558 0.46046,-0.97141 -1.40522,-5.57753 -1.0877205,-2.68542 -2.6801607,-6.62124 -3.5387607,-8.74627 -1.5611,-3.86367 -1.5611,-3.86367 -4.38101,-4.7297 -2.81992,-0.86602 -2.81992,-0.86602 -2.81992,-3.16255 0,-2.6668 -0.25221,-2.58167 3.79935,-1.28244 4.00954,1.28575 4.01728,1.28532 6.8008807,-0.38254 1.28201,-0.76814 5.3224,-3.12143 8.97864,-5.22951 6.26951,-3.61483 10.71162,-22.83413 5.82813,-25.21605 -0.45077,-0.21986 -4.69169,-2.66332 -9.42428,-5.42991 -9.7367107,-5.69193 -8.7704607,-5.40011 -12.8799207,-3.88992 -3.1028,1.14024 -3.1028,1.14024 -3.1028,-1.31414 0,-2.7821 -0.16914,-2.66454 6.45491,-4.48644 52.4023207,-14.41291 104.3397997,24.11947 91.1265207,67.60669 -0.77031,2.53524 -0.77031,2.53524 -3.6861,2.53524 -2.61033,0 -2.89482,-0.0531 -2.71567,-0.50704 1.44575,-3.66333 2.79892,-9.53749 2.79892,-12.15027 0,-1.72763 0,-1.72763 -4.46216,-4.3117 -2.45419,-1.42124 -6.74424,-3.92152 -9.53343,-5.55616 -5.36129,-3.14205 -5.64733,-3.23454 -7.78053,-2.51578 -0.74485,0.25097 -4.96042,1.54577 -9.36795,2.87733 -4.40752,1.33155 -8.6234,2.62573 -9.36863,2.87594 -1.32935,0.44634 -1.38316,0.52747 -2.84809,4.29378 -0.82123,2.11137 -1.6558,4.23 -1.85462,4.70808 -3.43142,8.25138 -3.63477,8.89076 -3.05248,9.59765 0.56688,0.68817 0.56688,0.68817 -16.78567,0.68817 -17.35255,0 -17.35255,0 -16.78011,-0.69493 z m 30.28564,-8.50436 c 3.33193,-8.28391 3.77549,-9.4176 3.90206,-9.97325 0.0772,-0.33873 -2.0239,-1.72048 -6.99274,-4.59876 -3.90667,-2.26299 -7.85612,-4.55119 -8.77655,-5.08488 -1.67352,-0.97034 -1.67352,-0.97034 -5.646,1.36793 -2.18487,1.28604 -6.1466,3.58606 -8.80385,5.11115 -4.09073,2.34781 -4.79801,2.8653 -4.61373,3.3757 0.38786,1.07427 4.92699,12.44258 5.50448,13.78605 0.30825,0.71712 0.61921,1.46682 0.69101,1.66602 0.10076,0.27954 2.66168,0.36218 11.22385,0.36218 11.09329,0 11.09329,0 13.51147,-6.01214 z m 51.54803,-12.04083 c 0,-8.10465 -8.83668,-25.39727 -10.66282,-20.86622 -0.50249,1.24678 -1.68108,4.15744 -2.61909,6.46813 -3.03948,7.48746 -2.90948,6.4738 -0.97063,7.56849 2.48169,1.40119 7.80778,4.51067 10.95301,6.3946 3.32933,1.9942 3.29953,1.99027 3.29953,0.435 z m -36.79007,-3.91046 c 2.10359,-0.65114 5.95562,-1.85295 8.56007,-2.67068 2.60444,-0.81773 5.17064,-1.6157 5.70266,-1.77326 1.14688,-0.33965 1.07142,-0.19552 4.15045,-7.92701 1.33274,-3.34652 2.90266,-7.24309 3.4887,-8.65905 1.25781,-3.03902 1.4344,-2.66188 -2.98513,-6.37568 -5.12665,-4.308 -11.06364,-7.78467 -18.0061,-10.54427 -7.51484,-2.98712 -6.01171,-3.25429 -16.87907,3.00013 -11.19469,6.44279 -14.64768,23.5054 -5.79599,28.64033 2.0535,1.19125 6.19238,3.5928 9.19751,5.33678 5.46387,3.17086 5.46387,3.17086 7.10303,2.66373 0.90154,-0.27891 3.36028,-1.03987 5.46387,-1.69102 z m -26.70653,-34.17401 c 11.1394,-6.11717 13.55634,-7.74412 12.04497,-8.10804 -6.47054,-1.55803 -20.53126,-1.55803 -27.17708,0 -1.52474,0.35745 -1.52474,0.35745 2.00362,2.38564 1.9406,1.11551 5.26365,3.03618 7.38456,4.26816 4.48242,2.60371 3.91318,2.45959 5.74393,1.45424 z m 97.103569,54.47142 c 1.3309,-31.98404 41.28999,-54.52236 79.40409,-44.78666 2.823,0.72109 2.823,0.72109 2.823,2.72549 0,2.03004 -0.17956,2.25563 -1.38991,1.74615 -0.70643,-0.29735 -1.19902,-0.0409 -10.79376,5.61846 -6.74368,3.97772 -10.06568,20.02181 -4.7394,22.88959 0.88792,0.47807 4.42406,2.48661 7.8581,4.46342 6.11206,3.51841 6.26823,3.58714 7.40701,3.25959 0.63981,-0.18403 1.2746,-0.3346 1.41063,-0.3346 0.13603,0 0.24733,0.91269 0.24733,2.02819 0,1.11551 -0.14783,2.02819 -0.32852,2.02819 -0.18068,0 -0.78839,1.17346 -1.35046,2.60768 -1.02194,2.60767 -1.02194,2.60767 -3.49619,2.60767 -2.87764,0 -2.80937,0.13357 -1.54348,-3.01963 0.76969,-1.91724 0.84115,-2.35916 0.43387,-2.68313 -1.06941,-0.85064 -14.32491,-8.48817 -14.73722,-8.49126 -0.9269,-0.007 -15.22478,8.71694 -15.10519,9.21647 0.13915,0.58127 1.35332,3.75208 1.71184,4.47051 0.22655,0.45397 -0.0156,0.50704 -2.31359,0.50704 -2.56663,0 -2.56663,0 -3.55015,-2.45594 -0.98352,-2.45595 -0.98352,-2.45595 -4.48431,-3.51936 -1.92544,-0.58487 -6.20541,-1.9039 -9.51105,-2.93119 -3.30564,-1.02728 -6.35912,-1.88826 -6.78552,-1.9133 -1.45202,-0.0853 -16.52699,9.04663 -16.52699,10.01147 0,0.80353 -0.0144,0.80832 -2.42104,0.80832 -2.42103,0 -2.42103,0 -2.21909,-4.85317 z m 11.29785,-5.45397 c 7.47945,-4.34344 7.01893,-3.2196 4.20782,-10.26855 -2.61846,-6.56587 -2.44748,-6.39655 -4.01892,-3.97991 -3.28521,5.05217 -5.22627,9.54288 -6.10534,14.12491 -0.22929,1.19518 -0.50291,2.53161 -0.60803,2.96985 -0.26859,1.11965 -0.41471,1.18339 6.52447,-2.8463 z m 35.60705,-0.48573 c 1.98855,-1.15535 5.42128,-3.1437 7.6283,-4.41856 5.22879,-3.02037 6.37717,-19.2952 1.55838,-22.08529 -1.35231,-0.78299 -4.91749,-2.85471 -7.92262,-4.60382 -3.00513,-1.74911 -5.6408,-3.26611 -5.85705,-3.3711 -1.8825,-0.91396 -15.9579,6.23315 -21.71494,11.02627 -4.32619,3.60184 -4.17839,3.25558 -2.8252,6.61902 5.39324,13.40513 5.14293,12.82014 5.61809,13.12983 0.2056,0.134 3.40626,1.16057 7.11259,2.28126 3.70632,1.12069 7.72227,2.36032 8.92432,2.75472 3.19828,1.04938 3.45862,1.00299 7.47813,-1.33233 z m 21.98848,-32.83511 c 5.42558,-3.16529 5.42558,-3.16529 2.73193,-3.68479 -5.37015,-1.03569 -15.68444,-0.95898 -21.74974,0.16177 -1.93598,0.35773 -1.93598,0.35773 4.69556,4.2001 6.63153,3.84236 6.63153,3.84236 7.7641,3.16528 0.62291,-0.37239 3.57408,-2.10145 6.55815,-3.84236 z m -68.90087,-14.31877 c -6.53963,-3.17159 -0.74592,-11.3218 5.91509,-8.32097 5.33512,2.40351 3.23964,8.90136 -2.86944,8.8978 -1.21137,-7e-4 -2.27185,-0.20156 -3.04565,-0.57683 z m -8.45286,-0.562 c -0.20739,-0.30824 -0.38067,-0.99276 -0.38507,-1.52115 -0.004,-0.52839 -0.33223,-1.52907 -0.72852,-2.22375 -0.81592,-1.43028 -0.91859,-3.06945 -0.29583,-4.72283 0.33334,-0.88498 0.32007,-1.45311 -0.0617,-2.64129 -0.589,-1.83327 -1.10154,-5.71166 -1.27216,-9.62656 -0.12029,-2.75991 -0.41349,-5.06484 -0.74804,-5.88045 -0.11265,-0.27465 -0.49362,-0.19178 -1.41985,0.30886 -3.04066,1.6435 -4.29912,4.08464 -4.59003,8.90362 -0.18181,3.01175 -0.40957,4.06099 -1.35221,6.22945 -0.9581,2.20402 -1.13045,3.0178 -1.1134,5.25712 0.0229,3.01032 -0.41598,3.89641 -2.45717,4.96072 -2.74367,1.4306 -4.76856,0.55438 -3.3061,-1.43061 0.52808,-0.71677 0.86403,-1.37966 0.74655,-1.47311 -0.11747,-0.0934 0.16965,-0.58446 0.63806,-1.09116 0.83545,-0.90372 0.84968,-1.03238 0.74746,-6.75926 -0.0573,-3.21091 0.048,-6.42474 0.23399,-7.14186 0.186,-0.71711 0.61076,-2.28171 0.94391,-3.47689 0.33314,-1.19519 0.66769,-3.73767 0.74343,-5.64997 0.0857,-2.16335 0.37207,-4.07894 0.75805,-5.07047 0.34119,-0.87647 0.66936,-2.11512 0.72929,-2.75255 0.0599,-0.63743 0.28344,-1.6479 0.49672,-2.2455 0.21328,-0.59759 0.52606,-1.51334 0.69507,-2.035 0.16901,-0.52167 0.49684,-1.2302 0.72851,-1.57453 0.94982,-1.41169 0.52826,-5.44269 -0.74075,-7.08318 -1.16197,-1.50213 -1.16197,-1.50213 -1.95341,1.22704 -0.4353,1.50105 -1.4536,4.03302 -2.2629,5.6266 -2.43766,4.79994 -2.772,5.7906 -2.31001,6.84475 0.51133,1.16674 0.51825,2.48106 0.0144,2.72877 -0.21485,0.10562 -0.48003,-0.0865 -0.59276,-0.42936 -0.25026,-0.76121 -0.98045,-0.62975 -1.13526,0.20439 -0.0741,0.39902 0.20912,0.77899 0.81645,1.09553 0.82949,0.43231 1.00999,1.25031 0.18658,0.84552 -0.18421,-0.0906 -0.2373,0.0377 -0.11799,0.28501 0.38025,0.7882 -0.52023,0.48335 -1.453279,-0.492 -1.35026,-1.41146 -1.44514,-2.18572 -0.65215,-5.32149 0.3983,-1.57504 1.00934,-4.23274 1.357859,-5.90599 0.34852,-1.67326 1.10964,-4.2073 1.69138,-5.6312 0.77769,-1.90355 0.99604,-2.87921 0.82479,-3.68549 -0.85071,-4.00523 0.95465,-6.57716 5.6823,-8.09504 2.54712,-0.8178 3.01464,-1.75827 1.45033,-2.91751 -1.74293,-1.29161 -0.74986,-6.31335 1.4313,-7.23777 3.99139,-1.69165 7.18733,1.24114 6.85419,6.28982 -0.16467,2.49558 -0.16467,2.49558 2.77686,3.59143 3.41964,1.27397 5.72782,3.00164 6.57951,4.92476 0.31458,0.7103 1.04557,1.88376 1.62442,2.60767 4.7179,5.90022 4.87898,12.41411 0.43505,17.59264 -0.82966,0.96682 -1.50848,2.07082 -1.50848,2.45334 0,1.79616 -2.37955,8.27736 -4.11308,11.20283 -0.94529,1.59524 -1.05007,2.01897 -0.82396,3.33203 0.40321,2.34151 0.23884,3.80034 -0.72683,6.45097 -1.12865,3.09801 -1.13579,2.97502 0.38213,6.58328 1.46271,3.47703 1.57214,4.40384 0.57033,4.83032 -1.23232,0.5246 -3.5927,0.37156 -4.01797,-0.2605 z m 8.76573,-44.29224 c -1.44868,-2.28274 -1.64745,-2.25503 -1.38937,0.19363 0.33756,3.20273 1.29556,4.61026 1.98816,2.92109 0.53048,-1.2938 0.51904,-1.35331 -0.59879,-3.11472 z m 53.46117,35.64883 c -2.15231,-2.65463 -3.57349,-4.42679 -7.95455,-9.9191 -1.46182,-1.83262 -3.1872,-3.98395 -3.83416,-4.78074 -0.64696,-0.79679 -5.81055,-7.25078 -11.47463,-14.34221 -5.66409,-7.09143 -10.92764,-13.6758 -11.69678,-14.63195 -3.40348,-4.23098 -3.91109,-4.93575 -3.67323,-5.09999 0.13889,-0.0959 5.49785,-2.82152 11.9088,-6.05689 15.64581,-7.8959 24.52604,-12.40011 33.51174,-16.99777 4.70911,-2.40948 9.61933,-4.89543 18.08682,-9.15701 1.82876,-0.92039 3.42239,-1.59599 3.5414,-1.50132 0.3142,0.24992 -0.8235,0.88325 -8.38501,4.6677 -6.79098,3.39881 -6.79098,3.39881 -5.93716,4.42983 0.46961,0.56707 1.77042,2.20448 2.8907,3.63871 2.96502,3.79592 7.84397,9.81228 8.18504,10.09317 0.16158,0.13308 0.79623,0.0353 1.41033,-0.2173 0.61409,-0.2526 1.28859,-0.45927 1.49888,-0.45927 0.79321,0 0.33577,0.48982 -0.89255,0.95574 -1.56871,0.59504 -1.56878,0.58821 0.0229,2.46823 0.7138,0.84311 1.2445,1.75318 1.17932,2.02238 -0.0789,0.32591 -0.47111,0.006 -1.17375,-0.9573 -2.16267,-2.96508 -2.0504,-2.92721 -4.04689,-1.36489 -7.13953,5.58694 -4.53545,16.70707 4.32674,18.47631 0.53161,0.10613 0.96656,0.36776 0.96656,0.58139 0,0.31349 -0.26192,0.30136 -1.35776,-0.0628 -9.83206,-3.2677 -12.12602,-13.39422 -4.42232,-19.52197 1.12394,-0.89401 1.7129,-1.57905 1.54953,-1.8023 -0.24304,-0.33213 -6.65203,-8.3579 -10.07457,-12.61607 -0.80688,-1.00388 -1.65678,-1.76733 -1.88867,-1.69655 -0.23189,0.0708 -2.54315,1.22619 -5.13614,2.56758 -6.51291,3.36922 -26.35778,13.43807 -38.59052,19.57998 -3.00513,1.50883 -5.65522,2.88987 -5.88909,3.06896 -0.32103,0.24583 0.34841,1.28954 2.73194,4.25933 1.73643,2.16353 3.68674,4.61287 4.33401,5.44297 1.41085,1.80936 -0.001,2.26198 11.7543,-3.76745 4.70804,-2.41474 9.06549,-4.63214 9.68323,-4.92754 1.12317,-0.53711 1.12317,-0.53711 2.5031,1.05662 0.75897,0.87655 1.58851,1.59372 1.84343,1.59372 0.25492,0 0.44763,0.29337 0.42823,0.65192 -0.0204,0.37716 2.12169,3.3385 5.08245,7.02623 10.12704,12.61364 10.93761,13.5594 11.18378,13.04912 0.12791,-0.26514 0.39809,-0.40072 0.60039,-0.30126 0.24498,0.12043 0.23578,0.37705 -0.0275,0.76842 -0.32825,0.48786 -0.16934,0.85838 0.93612,2.18272 0.73231,0.87731 1.27859,1.62727 1.21395,1.66658 -0.0646,0.0393 -1.67473,0.85773 -3.57798,1.81872 -1.90325,0.96099 -6.44795,3.26636 -10.09934,5.12304 -3.65138,1.85669 -6.8786,3.44896 -7.1716,3.53839 -0.59015,0.18014 -0.008,1.01152 4.94811,7.06814 1.49966,1.83261 2.87984,3.5538 3.06706,3.82485 0.35348,0.51177 1.77212,-0.16344 20.58063,-9.79545 5.35835,-2.74405 5.79527,-2.93005 5.79527,-2.46704 0,0.27566 -1.778,1.2087 -16.27463,8.54044 -11.2258,5.6775 -9.67005,5.38604 -12.18591,2.28302 z m 6.23176,-16.25515 c 6.6001,-3.34688 7.59105,-3.94319 7.29181,-4.38794 -0.19046,-0.28308 -1.18239,-1.51896 -2.20428,-2.7464 -1.0219,-1.22744 -2.96033,-3.62073 -4.30763,-5.31841 -2.76164,-3.47984 -14.68564,-18.39009 -14.82757,-18.54098 -0.11972,-0.12727 -2.05839,0.81584 -8.52729,4.14829 -2.90496,1.49649 -6.79797,3.47277 -8.65113,4.39173 -1.85316,0.91896 -3.36938,1.77814 -3.36938,1.90929 0,0.61438 3.0162,3.97544 3.40263,3.79167 0.23214,-0.11039 3.1988,-1.61015 6.59258,-3.33278 7.20541,-3.65737 6.43426,-3.48162 7.70397,-1.75579 0.5569,0.75695 2.18589,2.81049 3.61998,4.56343 2.49088,3.04467 7.34757,9.06716 9.38876,11.64242 0.96044,1.21173 0.96044,1.21173 -5.75781,4.6033 -4.08754,2.06352 -6.62523,3.51779 -6.48069,3.71389 3.35384,4.55043 1.13719,4.91905 16.12605,-2.68172 z m -10.31903,-1.40094 c 3.37651,-1.70562 6.18864,-3.12492 6.24918,-3.15399 0.0605,-0.0291 -0.77156,-1.14346 -1.8491,-2.4764 -1.07755,-1.33295 -4.147,-5.1616 -6.821,-8.50811 -2.674,-3.34652 -5.06145,-6.26135 -5.30546,-6.4774 -0.50635,-0.44833 -0.82015,-0.31513 -7.80787,3.31444 -2.30393,1.19671 -4.41791,2.28344 -4.69773,2.41496 -0.60339,0.2836 -0.15951,0.91953 5.78038,8.28128 2.18585,2.70908 4.81616,6.00127 5.84513,7.31597 2.27458,2.90619 1.28434,2.98797 8.60647,-0.71075 z M 45.469781,215.6356 c -0.42334,-0.4281 -0.78504,-0.92376 -0.80378,-1.10147 -0.0187,-0.1777 -0.0758,-0.90983 -0.12673,-1.62694 -0.051,-0.71711 -0.20899,-1.51519 -0.35115,-1.77352 -0.3565,-0.64784 0.5889,-1.32503 2.44057,-1.7482 2.38564,-0.54519 3.351,-1.23561 5.18846,-3.71073 1.92842,-2.59765 2.53028,-3.10354 4.66676,-3.9226 1.29186,-0.49525 1.5285,-0.72688 1.62805,-1.59358 0.0726,-0.63227 0.51087,-1.34137 1.16397,-1.88332 2.48395,-2.0612 3.85222,-6.15175 2.1484,-6.4228 -2.10967,-0.33562 -3.63,-2.83801 -2.7371,-4.50511 0.28029,-0.52332 0.79693,-1.50562 1.14809,-2.1829 0.35117,-0.67727 0.86352,-1.2314 1.13856,-1.2314 0.48472,0 1.27765,-1.14364 1.40622,-2.02819 0.92333,-6.35247 -1.03381,-8.08749 -9.66636,-8.56932 -0.90154,-0.0503 -2.28851,-0.35933 -3.08215,-0.68669 -1.96659,-0.81118 -3.12212,-0.7564 -4.25215,0.20159 -1.66579,1.41217 -4.35613,2.58745 -4.30694,1.8815 0.25176,-3.61331 5.66134,-5.09425 13.94064,-3.81642 4.31413,0.66584 11.54241,-0.37321 11.54241,-1.6592 0,-3.00176 3.92158,-4.54037 6.4488,-2.53014 0.81129,0.64532 0.9028,0.91959 0.76091,2.28055 -0.16128,1.54702 -0.16128,1.54702 1.14092,1.67059 0.71621,0.068 1.63004,0.22957 2.03072,0.35911 0.40103,0.12965 0.0735,-0.2479 -0.72852,-0.83989 -1.4251,-1.05185 -1.43508,-1.07274 -0.45532,-0.95317 1.11195,0.1357 1.28559,-0.11852 0.45532,-0.66662 -0.30051,-0.19839 -0.54638,-0.58739 -0.54638,-0.86445 0,-0.84719 2.77954,-0.0803 3.95471,1.0912 2.0045,1.99815 2.53833,2.3251 4.55959,2.79249 2.09871,0.4853 3.50136,1.60892 3.50485,2.80765 0.002,0.66939 -3.72056,1.48847 -5.00262,1.10075 -0.93735,-0.28348 -3.59809,-0.11113 -4.40449,0.2853 -0.2324,0.11425 -0.82052,1.24354 -1.30693,2.50953 -0.4864,1.26599 -1.22492,2.81831 -1.64113,3.4496 -0.41622,0.63129 -0.75676,1.43879 -0.75676,1.79445 0,0.35567 -0.28685,0.81704 -0.63745,1.02527 -1.86708,1.10893 -1.62357,3.53613 0.54639,5.44613 1.73675,1.52868 0.97758,2.66171 -3.29998,4.92502 -1.60413,0.84877 -2.99136,1.81207 -3.18107,2.20896 -0.51347,1.07426 -3.24604,3.83586 -3.9785,4.02078 -0.79346,0.20032 -1.2126,1.91483 -0.72003,2.94534 0.67247,1.4069 -1.04405,1.76945 -2.67728,0.56547 -0.94101,-0.69369 -0.94101,-0.69369 -1.94123,0.45437 -0.55012,0.63143 -1.83074,1.58793 -2.84582,2.12556 -2.91141,1.542 -6.02753,3.87581 -5.80126,4.34484 0.11237,0.23292 -0.22077,0.70293 -0.76216,1.0753 -0.58583,0.40293 -1.14247,1.22767 -1.42401,2.10989 -0.54269,1.70055 -1.27414,1.96069 -2.37704,0.84542 z m 21.85854,-0.89588 c -3.54276,-1.41711 -3.43285,-5.24186 0.18723,-6.51561 1.91575,-0.67407 3.26913,-0.44698 4.94432,0.82964 3.54366,2.70051 -0.73708,7.44375 -5.13155,5.68597 z M 195.02766,204.23149 c 0.10777,-0.32782 0.35277,-0.59603 0.54443,-0.59603 0.48359,0 0.2102,0.94032 -0.31372,1.07907 -0.27141,0.0719 -0.35536,-0.10389 -0.23071,-0.48304 z m 0.8395,-2.31738 c 0,-0.32812 0.16391,-0.59658 0.36426,-0.59658 0.20034,0 0.36425,0.18788 0.36425,0.41751 0,0.22963 -0.16391,0.4981 -0.36425,0.59658 -0.20035,0.0985 -0.36426,-0.0894 -0.36426,-0.41751 z m 0,-2.62477 c 0,-0.31872 0.16391,-0.57949 0.36426,-0.57949 0.20034,0 0.36425,0.26077 0.36425,0.57949 0,0.31871 -0.16391,0.57948 -0.36425,0.57948 -0.20035,0 -0.36426,-0.26077 -0.36426,-0.57948 z m -0.49151,-2.45353 c -0.11286,-0.23393 -0.0484,-0.50239 0.14316,-0.59658 0.19159,-0.0942 0.34835,-0.10903 0.34835,-0.033 0,0.0761 0.0995,0.34452 0.2211,0.59659 0.1216,0.25207 0.0572,0.45831 -0.14316,0.45831 -0.20034,0 -0.45659,-0.1914 -0.56945,-0.42534 z m -1.11726,-2.36868 c -0.12632,-0.26184 -0.15476,-0.53567 -0.0632,-0.6085 0.28949,-0.23026 0.94345,0.23212 0.94345,0.66707 0,0.56834 -0.59697,0.52862 -0.88025,-0.0586 z m -1.45703,-2.31793 c -0.30495,-0.63212 0.1,-0.92593 0.53022,-0.38475 0.43075,0.54177 0.43992,0.86083 0.0247,0.86083 -0.17891,0 -0.42864,-0.21424 -0.55496,-0.47608 z m -2.03382,-1.98672 c -0.25295,-0.24244 -0.29239,-0.43462 -0.0892,-0.43462 0.20034,0 0.56832,0.19558 0.81772,0.43462 0.25295,0.24244 0.2924,0.43461 0.0892,0.43461 -0.20034,0 -0.56831,-0.19558 -0.81772,-0.43461 z m -2.15627,-1.28945 c -0.26528,-0.13041 -0.41948,-0.38709 -0.34266,-0.57039 0.1,-0.23852 0.3354,-0.21943 0.82809,0.0671 0.74683,0.43438 0.3054,0.89203 -0.48543,0.50326 z m -2.93279,-1.45178 c -0.29471,-0.14825 -0.44111,-0.3449 -0.32533,-0.437 0.28695,-0.22824 1.40756,0.13534 1.40756,0.45668 0,0.33024 -0.40112,0.32295 -1.08223,-0.0197 z m -3.28887,-1.17028 c 0,-0.36303 0.38656,-0.36303 1.09277,0 0.44183,0.22712 0.38955,0.28171 -0.27319,0.2853 -0.45077,0.002 -0.81958,-0.12595 -0.81958,-0.2853 z m -3.09619,-0.28975 c -0.12382,-0.15935 0.11238,-0.28974 0.52489,-0.28974 0.4125,0 0.75001,0.13039 0.75001,0.28974 0,0.15936 -0.2362,0.28975 -0.52489,0.28975 -0.28869,0 -0.6262,-0.13039 -0.75001,-0.28975 z M 0.33992032,184.17832 c 0.077,-0.18381 3.08214998,-1.82981 6.67805998,-3.65779 12.5466907,-6.3781 18.3764107,-9.39423 18.3764107,-9.50743 0,-0.11033 -2.88515,-3.76285 -8.68092,-10.9898 -2.79321,-3.48295 -2.79321,-3.48295 -4.97876,-2.76745 -3.5704007,1.16886 -10.84251068,0.82948 -11.40489068,-0.53226 -0.12516002,-0.30306 0.008,-0.34812 0.51851,-0.17475 3.80626998,1.29397 10.11420068,1.00188 12.44963068,-0.57648 0.094,-0.0635 -3.3937605,-4.49476 -10.7146107,-13.61283 -1.27752,-1.59115 -2.32277,-3.14489 -2.32277,-3.45275 0,-0.69808 -0.36837,-1.10182 3.80715,4.17269 1.95539,2.47004 3.92953,4.94733 4.38697,5.50509 0.45744,0.55775 1.9182907,2.36012 3.2463207,4.00527 2.69573,3.33944 3.04056,3.34663 5.93791,0.12381 7.72228,-8.58975 -3.30959,-20.29639 -15.8302507,-16.7985 -1.26316998,0.35289 -1.5481,0.36124 -1.5481,0.0454 0,-0.9159 6.50277,-1.60338 9.3750802,-0.99114 11.5349005,2.45866 15.1542005,13.1635 6.7094505,19.84461 -1.83113,1.44871 -1.83113,1.44871 -0.85002,2.60768 0.53961,0.63743 2.2808,2.78876 3.86932,4.78073 5.19446,6.51378 6.75973,8.40251 6.96347,8.40251 0.17406,0 3.39002,-1.60496 10.17638,-5.07862 1.00171,-0.51274 5.01765,-2.55277 8.92432,-4.53341 23.47773,-11.90298 29.85022,-15.18314 29.85915,-15.36962 0.0117,-0.24421 -7.15098,-9.41621 -7.90249,-10.11934 -0.4617,-0.43198 -1.35636,-0.0488 -9.50295,4.07054 -4.94629,2.50108 -9.59821,4.84025 -10.33759,5.19817 -1.34432,0.65074 -1.34432,0.65074 -2.63634,-0.95583 -0.71061,-0.88361 -1.53479,-1.60657 -1.8315,-1.60657 -0.3166,0 -0.45741,-0.17013 -0.34082,-0.41179 0.11317,-0.23459 -3.00154,-4.3801 -7.23839,-9.63391 -4.09037,-5.07216 -7.64695,-9.53633 -7.9035,-9.92036 -0.41106,-0.61534 -0.50663,-0.64114 -0.80482,-0.21731 -0.1861,0.26452 -0.51299,0.48094 -0.72642,0.48094 -0.22494,0 -0.15103,-0.28774 0.17586,-0.68457 0.53286,-0.64688 0.49312,-0.76818 -0.72173,-2.20309 -0.7071,-0.83519 -1.1469,-1.61847 -0.97734,-1.74064 0.24117,-0.17375 8.25518,-4.26447 19.52291,-9.96539 0.88058,-0.44553 1.0752,-0.11873 -3.40161,-5.71218 -2.22148,-2.775585 -4.12279,-5.152801 -4.22513,-5.2827 -0.10234,-0.129899 -0.45665,-0.05446 -0.78736,0.167649 -0.56556,0.379837 -4.00211,2.125728 -26.1846905,13.302781 -4.9578602,2.49809 -9.09779018,4.47457 -9.19983018,4.39216 -0.30587002,-0.24702 1.29359998,-1.14324 8.55664998,-4.79448 3.8065007,-1.91358 9.5435707,-4.81039 12.7490407,-6.43736 15.67425,-7.9556 14.75826,-7.530132 15.27062,-7.093043 0.26352,0.224803 2.40527,2.820831 4.75943,5.768953 2.35417,2.94812 4.65432,5.81656 5.11144,6.37432 1.09413,1.33498 6.65038,8.25245 11.28721,14.05246 2.03839,2.54973 6.37865,7.96065 9.64503,12.02428 8.00691,9.96122 8.79632,11.00218 8.56717,11.29709 -0.10856,0.13972 -1.54675,0.92 -3.19598,1.73396 -1.64923,0.81395 -6.85063,3.4467 -11.55867,5.85055 -4.70803,2.40385 -13.06775,6.65703 -18.57716,9.45151 -11.02771,5.59347 -14.76701,7.49569 -20.21632,10.28428 -2.00342,1.02521 -6.67503,3.3963 -10.38135,5.26909 -3.7063307,1.87279 -7.8432507,3.97747 -9.1931507,4.67707 -2.59709998,1.34597 -2.97281,1.47419 -2.74802998,0.93781 z m 52.24308068,-42.62 c 3.20172,-1.63342 7.26257,-3.68696 9.02411,-4.56343 5.16964,-2.57219 4.92629,-2.32962 3.87913,-3.86681 -1.45901,-2.14177 -2.09848,-2.69388 -2.73651,-2.36263 -2.56081,1.32951 -10.11949,5.13679 -11.17447,5.62854 -1.32062,0.61557 -1.32062,0.61557 -7.31578,-6.85261 -3.29733,-4.1075 -6.60165,-8.21857 -7.34292,-9.13571 -1.48109,-1.83248 -2.15262,-1.31608 9.14628,-7.03333 1.25039,-0.6327 2.27486,-1.25134 2.27662,-1.37476 0.005,-0.38091 -2.98225,-4.00771 -3.22689,-3.91721 -0.12671,0.0469 -1.86303,0.93273 -3.8585,1.96855 -6.32308,3.28225 -12.34069,6.33355 -14.12909,7.16432 -0.95142,0.44197 -1.73002,0.88945 -1.73022,0.99441 -7.7e-4,0.39547 20.83388,26.31404 21.1557,26.31795 0.11618,0.001 2.83082,-1.33386 6.03254,-2.96728 z m 1.30204,-6.9783 c 1.65972,-0.8501 4.36752,-2.23474 6.01734,-3.07698 1.80657,-0.92225 2.90494,-1.66158 2.7615,-1.85881 -0.23571,-0.32411 -7.50319,-9.41218 -9.76152,-12.2069 -0.64386,-0.79679 -1.77226,-2.20464 -2.50754,-3.12857 -0.86573,-1.08782 -1.49503,-1.60816 -1.7856,-1.4764 -5.607,2.54234 -11.85423,6.04887 -11.55884,6.4879 0.53283,0.79193 12.7289,16.00213 13.17024,16.42513 0.52157,0.49989 0.23582,0.59076 3.66442,-1.16537 z m 101.303299,17.36824 c -11.21282,-2.89305 -8.80449,-15.56031 2.95193,-15.52649 4.26374,0.0123 9.31476,3.06631 9.31476,5.63206 0,0.87132 0.62,0.42809 1.06913,-0.7643 0.57558,-1.52811 1.35887,-2.48639 2.20748,-2.70063 0.97672,-0.24658 6.75911,-6.50966 8.41634,-9.11599 1.4028,-2.20619 3.24751,-3.84345 6.63735,-5.89092 1.55677,-0.94029 1.75053,-1.65366 0.44917,-1.65366 -1.57423,0 -6.34542,1.91489 -6.81536,2.73531 -0.63795,1.11372 -3.17689,-1.10053 -8.77339,-7.65141 -1.29406,-1.51473 -1.29438,-1.51468 -5.52329,0.90568 -3.60747,2.06469 -3.60747,2.06469 -5.28174,1.58741 -2.80171,-0.79867 -3.43215,-0.66153 -8.0078,1.74196 -8.00121,4.20284 -10.3421,4.14786 -14.17953,-0.33305 -1.09178,-1.27486 -2.66005,-2.91663 -3.48503,-3.64839 -1.11014,-0.98467 -1.87177,-2.14119 -2.93055,-4.44992 -1.94716,-4.24592 -1.93582,-4.23714 -5.83963,-4.52017 -5.57319,-0.40405 -5.98768,-1.74194 -1.30673,-4.2178 2.51447,-1.32997 2.5986,-1.35075 4.82067,-1.19048 1.53708,0.11087 2.56333,0.039 3.20362,-0.22438 4.43185,-1.82297 8.3681,0.24096 6.89908,3.61745 -0.91297,2.09841 -0.84034,2.22745 2.45619,4.36408 1.83098,1.18674 2.63497,1.93554 3.05934,2.84935 0.66133,1.42405 1.24684,1.07198 4.38793,-2.63848 1.7093,-2.01915 6.84006,-6.47909 9.2609,-8.05011 0.85946,-0.55775 2.27365,-1.73067 3.14264,-2.60648 0.86899,-0.875817 2.80108,-2.533923 4.29354,-3.684682 1.49246,-1.15076 2.63987,-2.135466 2.54981,-2.188237 -4.62104,-2.707614 -5.08124,-3.435624 -5.08124,-8.038222 0,-3.257335 -0.0503,-3.519478 -0.63745,-3.320359 -4.70689,1.596309 -8.06205,2.037397 -8.11633,1.067019 -0.0728,-1.301251 -1.06563,-1.257529 -3.24126,0.142735 -1.21487,0.781904 -3.23382,1.85362 -4.48655,2.38159 -2.77693,1.170352 -7.13831,3.727266 -9.32631,5.467665 -4.06076,3.230046 -10.20668,3.180617 -8.09589,-0.06511 0.21486,-0.33039 0.61135,-1.122244 0.88109,-1.759676 0.44475,-1.050993 0.61977,-1.167594 1.87864,-1.251578 0.76352,-0.05094 1.97447,-0.409493 2.69102,-0.79679 0.71654,-0.387297 1.60437,-0.704177 1.97296,-0.704177 0.37089,0 2.4071,-1.405635 4.55973,-3.147671 2.13927,-1.731219 5.11895,-3.805585 6.62151,-4.609704 1.50257,-0.804118 4.61698,-2.579668 6.92091,-3.945666 2.30393,-1.365999 4.68071,-2.671075 5.28174,-2.900169 8.12362,-3.096495 7.80224,-3.034198 12.20264,-2.365368 2.54821,0.387308 2.78093,0.379977 3.46046,-0.109006 0.40068,-0.288331 1.09941,-0.67639 1.55272,-0.862353 0.65183,-0.267396 0.75001,-0.448396 0.46945,-0.865387 -0.19512,-0.29 -0.42582,-0.96904 -0.51268,-1.508978 -0.0869,-0.539938 -0.34881,-1.6519 -0.58212,-2.471026 -0.50388,-1.76908 -0.0739,-2.849183 1.81557,-4.560959 4.67471,-4.235027 12.00951,-2.171594 12.00951,3.378526 0,1.052261 0.16391,1.993782 0.36425,2.092271 0.54584,0.268336 0.43872,2.339671 -0.18212,3.52159 -1.0479,1.994919 -0.77123,2.863378 1.18383,3.715974 1.04805,0.457048 2.2699,1.34952 3.099,2.263581 1.89572,2.089987 3.92109,3.740769 4.41213,3.596115 0.22632,-0.06667 1.31303,-0.287936 2.41491,-0.491701 2.46672,-0.456159 7.26458,-1.462413 7.90524,-1.657966 0.36278,-0.110733 0.47269,0.386838 0.47269,2.139908 0,3.778771 -8.21116,7.581185 -12.84806,5.949662 -1.77191,-0.623456 -3.36512,-0.389926 -4.16964,0.611177 -0.61843,0.769548 -2.32017,5.97395 -2.52829,7.732241 -0.13781,1.164285 -0.60543,2.505403 -1.22481,3.512703 -1.37059,2.228999 -1.55243,6.157108 -0.50392,10.885708 0.59069,2.66387 0.59069,2.66387 2.68194,4.11069 1.28082,0.88613 2.48042,2.05865 3.09547,3.02558 0.55231,0.86832 1.72451,2.27723 2.60488,3.13091 2.64562,2.56542 2.47908,3.91912 -0.89875,7.30531 -0.97877,0.9812 -2.67862,2.89226 -3.77745,4.2468 -3.01665,3.71869 -4.5641,5.147 -9.27038,8.55667 -5.09079,3.68824 -5.13965,4.4817 -0.27602,4.4817 1.29007,0 2.37637,0.55224 3.45378,1.75579 1.89395,2.11569 -0.87887,3.40407 -6.52375,3.03122 -1.72954,-0.11423 -4.37398,-0.23511 -5.87655,-0.26862 -2.75853,-0.0615 -3.91376,-0.36171 -5.32821,-1.38462 -0.77499,-0.56046 -0.77499,-0.56046 -1.02884,0.54325 -0.97814,4.2528 -7.39075,7.37055 -12.46628,6.061 z M 39.873641,142.01835 c 0.25043,-0.0804 0.66022,-0.0804 0.91065,0 0.25043,0.0804 0.0455,0.14614 -0.45532,0.14614 -0.50086,0 -0.70575,-0.0658 -0.45533,-0.14614 z m -3.36938,-0.38759 c -0.12382,-0.15936 0.11238,-0.28974 0.52489,-0.28974 0.4125,0 0.75001,0.13038 0.75001,0.28974 0,0.15936 -0.2362,0.28974 -0.52489,0.28974 -0.28869,0 -0.6262,-0.13038 -0.75001,-0.28974 z m -2.73194,-0.86923 c 0,-0.15935 0.24588,-0.28974 0.54639,-0.28974 0.30051,0 0.54638,0.13039 0.54638,0.28974 0,0.15936 -0.24587,0.28975 -0.54638,0.28975 -0.30051,0 -0.54639,-0.13039 -0.54639,-0.28975 z m -2.54981,-1.30383 c -0.49222,-0.47176 -0.37448,-0.53073 0.5166,-0.25875 0.3169,0.0967 0.57618,0.29231 0.57618,0.43462 0,0.40078 -0.59023,0.30579 -1.09278,-0.17587 z m 51.36039,-0.94149 c -1.07911,-0.14624 -2.41842,-1.06976 -3.1308,-2.15885 -2.04007,-3.11884 2.83891,-6.44492 6.70424,-4.57039 4.36771,2.11816 1.55036,7.42359 -3.57344,6.72924 z m -53.52009,-0.48245 c -0.27165,-0.26036 -0.38587,-0.55933 -0.25381,-0.66438 0.34019,-0.27059 1.06786,0.37382 0.89308,0.7909 -0.10046,0.23974 -0.2979,0.20066 -0.63927,-0.12652 z m 85.028409,-0.18188 c -0.95324,-0.22796 -1.2323,-0.56337 -2.18554,-2.62684 -0.60103,-1.30103 -1.33865,-2.71057 -1.63916,-3.13231 -0.30052,-0.42175 -1.03814,-1.47054 -1.63917,-2.33065 -0.60102,-0.86011 -1.76652,-2.15967 -2.58998,-2.88791 -0.82347,-0.72824 -1.71063,-1.65003 -1.97147,-2.04842 -1.02069,-1.55895 -7.736999,-7.53329 -8.468859,-7.53329 -0.76713,0 -2.45065,1.82586 -2.45065,2.65784 0,0.74311 -0.10375,0.83192 -0.77414,0.66268 -0.42577,-0.10749 -0.70489,-0.0837 -0.62027,0.0529 0.0846,0.13659 0.3378,0.5743 0.56262,0.9727 0.22481,0.39839 0.85341,1.50665 1.39687,2.4628 0.54832,0.96467 1.65054,2.22817 2.47637,2.83871 1.29223,0.95534 1.5233,1.31787 1.75447,2.75254 0.14642,0.90876 0.37491,2.07437 0.50774,2.59024 0.33123,1.28633 -0.0576,2.31807 -0.95952,2.54575 -1.01324,0.25581 -2.02594,-0.51247 -2.32022,-1.7602 -0.12857,-0.54515 -0.55099,-1.5471 -0.93872,-2.22656 -0.38772,-0.67946 -0.70855,-1.49858 -0.71295,-1.82027 -0.005,-0.33922 -1.12546,-1.4537 -2.66851,-2.65342 -4.53061,-3.52254 -5.67513,-6.92993 -4.07035,-12.118 0.87249,-2.82066 0.9763,-9.02208 0.17461,-10.4307 -0.49471,-0.86923 -0.49471,-0.86923 -0.62608,-0.14487 -0.0723,0.39839 -0.5214,1.963 -0.9981,3.4769 -0.6353,2.01758 -0.83013,3.31344 -0.72968,4.85317 0.0797,1.22115 -0.009,2.10063 -0.21178,2.10063 -0.19185,0 -0.34882,0.18336 -0.34882,0.40748 0,0.69648 -1.36408,0.18077 -1.81567,-0.68643 -0.32853,-0.6309 -0.30049,-1.13788 0.13068,-2.36278 0.58144,-1.65177 0.86489,-10.70926 0.39896,-12.748744 -0.31781,-1.3912 0.51742,-2.644597 2.18063,-3.272389 1.51505,-0.571863 1.51329,-0.564675 0.53225,-2.179812 -1.89366,-3.117638 -0.5641,-5.813558 2.86712,-5.813558 2.55549,0 3.4401,0.931442 3.71485,3.911512 0.18699,2.028191 0.18699,2.028191 2.37254,2.177258 2.65567,0.181132 3.14904,0.437471 7.218589,3.750524 4.41198,3.591839 4.18378,5.247799 -0.54669,3.967179 -2.244219,-0.60755 -1.970869,1.62276 0.94619,7.72002 0.51808,1.08292 0.94197,2.29244 0.94197,2.68784 0,0.44191 0.75336,1.44539 1.95526,2.60443 3.45357,3.3304 4.61763,5.56141 3.32838,6.37912 -1.21082,0.76797 -0.91321,1.68644 1.25692,3.87899 1.47306,1.48827 2.75969,3.654 3.44861,5.80489 0.36384,1.13594 1.22794,2.63069 2.17746,3.76664 2.10202,2.51474 2.52973,3.20395 2.16425,3.4875 -0.52876,0.41022 -2.08309,0.53902 -3.22101,0.2669 z m -87.027279,-1.91255 c -0.30495,-0.63212 0.0999,-0.92593 0.53022,-0.38475 0.43075,0.54177 0.43992,0.86083 0.0247,0.86083 -0.17891,0 -0.42864,-0.21424 -0.55496,-0.47608 z m -1.44926,-2.01209 c -0.29301,-0.60737 -0.27925,-0.69899 0.10499,-0.69899 0.45536,0 0.80228,0.81792 0.42549,1.00315 -0.1706,0.0839 -0.40931,-0.053 -0.53048,-0.30416 z m -0.94881,-2.43744 c 0,-0.31871 0.16392,-0.57948 0.36426,-0.57948 0.20034,0 0.36426,0.26077 0.36426,0.57948 0,0.31872 -0.16392,0.57949 -0.36426,0.57949 -0.20034,0 -0.36426,-0.26077 -0.36426,-0.57949 z m -0.36426,-2.62477 c 0,-0.32812 0.16392,-0.516 0.36426,-0.41751 0.20034,0.0985 0.36426,0.36695 0.36426,0.59658 0,0.22963 -0.16392,0.41751 -0.36426,0.41751 -0.20034,0 -0.36426,-0.26846 -0.36426,-0.59658 z m 0,-2.30084 c 0,-0.31871 0.16392,-0.57948 0.36426,-0.57948 0.20034,0 0.36426,0.26077 0.36426,0.57948 0,0.31872 -0.16392,0.57949 -0.36426,0.57949 -0.20034,0 -0.36426,-0.26077 -0.36426,-0.57949 z m 0.62083,-1.93238 c -0.26093,-0.33582 0.34713,-1.16089 0.66766,-0.90594 0.12943,0.10295 0.0791,0.40929 -0.11192,0.68074 -0.19098,0.27145 -0.44106,0.37279 -0.55574,0.2252 z m 22.69169,-41.831815 c -8.40161,-0.602834 -16.36666,-2.423133 -24.58742,-5.619102 -25.9717907,-10.09701 -31.8300107,-22.182876 -10.7524,-22.182876 10.61991,0 27.27434,-8.88471 26.00569,-13.873363 -0.0653,-0.256826 -3.95419,-9.935888 -5.76223,-14.341667 -1.76999,-4.313045 -0.98399,-3.763042 -8.76255,-6.131565 C 4.4505403,14.773266 7.6362103,15.158424 2.7469903,18.111464 c -2.64584,1.598061 -2.48641,1.693358 -2.48641,-1.486206 0,-2.734542 0,-2.734542 1.63916,-3.670887 1.98143,-1.13186 1.98143,-0.577986 0,-5.7637191 -2.31932,-6.070064 -2.31672,-6.084573 1.09278,-6.084573 1.76442,0 2.73193,0.114281 2.73193,0.322691 0,1.641806 3.8357802,10.1063481 4.6935507,10.3574201 0.52385,0.153332 2.91944,0.884533 5.32355,1.624893 9.43521,2.905635 16.83372,5.079492 17.28755,5.079492 4.15117,0 18.95612,-10.9012751 18.95612,-13.9578871 0,-3.426609 0,-3.426609 2.91407,-3.426609 2.91406,0 2.91406,0 2.91406,3.424328 0,3.912054 -1.56528,2.555014 11.65626,10.1055291 7.83025,4.471677 6.61149,4.239778 12.57933,2.393514 2.59761,-0.803618 6.60796,-2.032873 8.9119,-2.731677 9.772499,-2.964088 8.52711,-1.952101 11.331349,-9.2077471 1.53976,-3.983947 1.53976,-3.983947 4.43525,-3.983947 3.42385,0 3.34276,-0.72995096 0.67397,6.06719 -1.02864,2.619844 -1.86532,4.9015591 -1.8593,5.0704781 0.01,0.269923 15.21086,9.412607 16.10177,9.684303 0.42419,0.129362 0.0832,-2.961085 -0.68302,-6.19002 -1.05435,-4.443268 -2.92521,-9.0176041 -5.8362,-14.2697741 -0.15177,-0.273829 0.55311,-0.362177 2.88958,-0.362177 3.54083,0 3.36384,-0.17719996 5.94026,5.947217 C 140.62675,46.685003 100.41074,86.588267 47.614131,82.799995 Z m 17.30225,-4.798789 c 7.99725,-1.007096 8.19905,-1.099006 9.50593,-4.329478 0.64142,-1.585536 2.34903,-5.7967 3.79468,-9.358142 3.0376,-7.483278 3.36994,-5.957288 -2.53824,-11.654532 -1.91246,-1.844183 -4.75636,-4.614837 -6.31977,-6.157009 -5.02131,-4.953097 -24.79772,-4.271178 -30.18731,1.040903 -2.13908,2.108314 -5.39686,5.301221 -7.2395,7.095348 -3.60425,3.509351 -3.6308,3.353877 3.32195,19.451456 1.25222,2.899231 0.5633,2.435813 4.71059,3.168672 8.5961,1.518997 16.83924,1.764385 24.95167,0.742782 z M 28.109401,71.3496 c -0.70314,-1.742586 -2.03341,-5.058903 -2.95615,-7.369592 -0.92274,-2.310689 -1.78958,-4.30118 -1.92631,-4.423313 -0.13674,-0.122133 -4.74542,-0.187325 -10.24152,-0.144871 -11.4127507,0.08816 -10.0714807,2.6843 5.56521,10.771964 9.24495,4.781704 11.10955,5.009116 9.55877,1.165812 z m 55.38415,2.199485 c 6.84478,-2.35857 17.664879,-8.73048 21.690479,-12.773437 1.13686,-1.141764 1.13686,-1.141764 -9.022359,-1.141764 -10.15922,0 -10.15922,0 -11.57178,3.549335 -0.77691,1.952134 -2.12002,5.279424 -2.98468,7.393978 -0.86467,2.114554 -1.57212,3.904103 -1.57212,3.976775 0,0.146581 0.75536,-0.07277 3.46046,-1.004887 z M 112.44312,52.836732 c 5.15212,-6.78469 8.67774,-15.288866 9.31415,-22.466751 0.24405,-2.752546 0.24405,-2.752546 -2.07184,-4.041353 -1.27373,-0.708845 -5.10246,-2.931497 -8.50827,-4.939227 -10.35037,-6.101553 -9.2575,-5.672215 -12.118469,-4.760803 -1.34852,0.429594 -4.9106,1.527339 -7.91572,2.439432 -14.35602,4.357228 -11.64512,1.802314 -17.52577,16.5173 -0.85976,2.151331 -1.72969,4.289119 -1.9332,4.75064 -0.41333,0.937402 -0.72186,0.55497 5.04987,6.259541 9.79309,9.679138 7.29538,8.661418 21.31426,8.68473 12.523639,0.02082 12.523639,0.02082 14.394989,-2.443509 z M 68.949881,32.470607 c 4.70636,-11.524817 4.51128,-9.986007 1.49061,-11.757731 -16.0582,-9.418679 -15.19212,-9.135203 -19.83225,-6.491309 -8.74659,4.983707 -13.74351,7.836114 -13.86949,7.917155 -0.0714,0.04591 0.22451,0.971446 0.65752,2.056741 0.82511,2.06809 5.7572,14.168322 6.03021,14.794331 0.12177,0.279237 2.74055,0.362177 11.43561,0.362177 11.27766,0 11.27766,0 14.08779,-6.881364 z M 182.37756,46.305709 c -25.5109,-3.204137 -43.24974,-22.602138 -39.2139,-42.8816981 0.43247,-2.173062 0.43247,-2.173062 2.39172,-2.261933 1.71998,-0.07802 1.93018,-0.0286 1.72119,0.404603 -0.23227,0.481464 -0.92692,3.947172 -0.94129,4.696231 -0.008,0.409605 1.49422,-0.359102 6.48408,-3.318299 4.53914,-2.69189896 6.44066,-2.66616096 15.86653,0.21476 6.71802,2.053295 6.71802,2.053295 10.42587,-0.0113 3.70785,-2.06459 3.70785,-2.06459 6.62203,-1.980859 2.91418,0.08373 2.91418,0.08373 -2.40055,3.098945 -2.9231,1.658368 -5.31473,3.18582 -5.31473,3.394338 0,0.208518 0.22668,0.937812 0.50372,1.620652 0.50908,1.2547301 2.87016,7.3542841 3.31253,8.5575021 1.38471,3.766303 15.10417,0.362244 16.93241,-4.201253 1.06936,-2.669245 2.07753,-5.1421271 2.24037,-5.4952951 0.28506,-0.618193 -2.50671,-2.4567 -9.89115,-6.513784 -0.87396,-0.480163 -0.82113,-0.492211 2.22343,-0.507047 3.11865,-0.0152 3.11865,-0.0152 6.6626,2.040785 3.85007,2.233581 3.09794,2.232005 9.77903,0.0205 0.16047,-0.05312 0.29177,0.61379 0.29177,1.48202 0,1.5786 0,1.5786 -2.73193,2.526072 -1.50257,0.52111 -2.73194,1.086524 -2.73194,1.256474 0,0.16995 -0.99369,2.7694901 -2.20819,5.7767551 -1.36316,3.37535 -2.0873,5.598298 -1.89228,5.808884 2.51221,2.712784 8.7367,8.598766 9.09328,8.598766 0.53829,0 0.67677,2.597748 0.16295,3.056774 -0.16946,0.15139 -0.99705,2.035435 -1.83908,4.186766 -0.84203,2.151332 -1.69302,4.221724 -1.89107,4.600873 -0.52234,0.999924 -0.25506,1.029453 1.80438,0.199344 2.3631,-0.952504 2.23388,-0.999143 2.23388,0.806278 0,1.678007 0.0642,1.639989 -5.66001,3.35346 -4.80367,1.437927 -16.22653,2.200301 -22.03565,1.470683 z m 15.59959,-3.105971 c 3.56589,-0.537212 3.02938,0.08126 5.86301,-6.758843 2.73895,-6.611555 2.89493,-5.551779 -1.4479,-9.837555 -5.9271,-5.849247 -4.34958,-5.215349 -12.9789,-5.215349 -8.52666,0 -6.91418,-0.645481 -12.66662,5.070478 -1.76412,1.752937 -3.41175,3.382733 -3.66139,3.62177 -0.37084,0.355084 -0.1405,1.203385 1.25877,4.635866 0.94197,2.310689 2.03112,5.012213 2.42034,6.003386 1.15126,2.931795 10.75889,4.055145 21.21269,2.480247 z M 172.9189,40.814312 c 0,-0.15186 -0.15708,-0.575607 -0.34906,-0.94166 -0.19199,-0.366054 -1.02477,-2.393137 -1.85063,-4.504629 -1.50157,-3.839076 -1.50157,-3.839076 -7.87155,-3.839076 -6.36998,0 -6.36998,0 -5.59841,0.861899 2.80478,3.133158 15.66965,10.048871 15.66965,8.423466 z m 1.42883,-16.58393 c 2.60183,-2.599857 4.33935,-4.586152 4.24535,-4.853172 C 174.4255,7.5388429 175.0207,8.2236999 166.70976,5.7038879 c -9.16379,-2.778386 -7.53222,-2.915122 -14.54588,1.219038 -7.32295,4.3164791 -7.54972,7.9382511 -1.1404,18.2136591 2.35123,3.769492 1.50444,3.494946 10.77956,3.494946 8.14022,0 8.14022,0 12.54469,-4.401149 z"
       id="path2" /></g></svg>
